Coordinates
version=1
nRows=17
nColumns=40
inDegrees=yes

Units are S.I. units (second, meters, Newtons, ...)
Angles are in degrees.

endheader
time	pelvis_tilt	pelvis_list	pelvis_rotation	pelvis_tx	pelvis_ty	pelvis_tz	hip_flexion_r	hip_adduction_r	hip_rotation_r	knee_angle_r	knee_angle_r_beta	ankle_angle_r	subtalar_angle_r	mtp_angle_r	hip_flexion_l	hip_adduction_l	hip_rotation_l	knee_angle_l	knee_angle_l_beta	ankle_angle_l	subtalar_angle_l	mtp_angle_l	lumbar_extension	lumbar_bending	lumbar_rotation	arm_flex_r	arm_add_r	arm_rot_r	elbow_flex_r	pro_sup_r	wrist_flex_r	wrist_dev_r	arm_flex_l	arm_add_l	arm_rot_l	elbow_flex_l	pro_sup_l	wrist_flex_l	wrist_dev_l
      8.28750000	     -2.29074999	     -5.50943307	      0.39572001	      0.94651246	      0.92538255	      0.48388537	     18.84612068	      2.87143532	    -15.42188318	     18.95896091	     18.95896091	      5.74227418	      1.72278043	     -4.43194698	      8.19679119	    -11.01518647	     -7.18894644	     46.72641773	     46.72641773	     14.37703382	    -17.96550132	      3.42284423	     -9.03955565	      8.50140874	      2.66802048	     -0.08056524	    -11.48895155	    -12.41869648	     26.33010123	     46.50123482	      0.00000000	      0.00000000	      9.48524286	    -11.47688628	     -2.94058949	     73.67564826	     46.85480494	      0.00000000	      0.00000000
      8.30000000	     -2.18035041	     -5.74924424	      0.74843255	      0.94633803	      0.92647629	      0.48557118	     17.88922926	      3.20009715	    -16.05135814	     18.39121027	     18.39121027	      6.17085470	      2.43974660	     -4.59677079	     10.24881306	    -11.87595864	     -6.87857036	     50.42825556	     50.42825556	     13.22118186	    -18.47067032	      4.39827119	     -9.11142389	      8.83571095	      2.58012153	      1.74612064	    -11.40476119	    -12.19270739	     27.22334232	     46.46084941	      0.00000000	      0.00000000	      8.72036284	    -11.15697875	     -2.47970021	     71.90659359	     46.80366532	      0.00000000	      0.00000000
      8.31250000	     -2.00921192	     -5.84220270	      1.08281523	      0.94596648	      0.92761803	      0.48695186	     16.92317722	      3.30466342	    -16.85314740	     17.94626284	     17.94626284	      6.54818947	      3.58267411	     -5.02184682	     12.37255086	    -12.40546971	     -6.38323255	     54.07429648	     54.07429648	     13.87358951	    -18.62004500	      9.80836520	     -9.20820959	      9.02337888	      3.12021536	      3.09407589	    -11.62780823	    -11.17102369	     28.39398702	     46.34450762	      0.00000000	      0.00000000	      9.05347429	    -10.42827120	     -1.53384782	     68.06360869	     46.72886911	      0.00000000	      0.00000000
      8.32500000	     -1.90032014	     -6.10524772	      1.43343732	      0.94548357	      0.92847765	      0.48849418	     16.00583109	      3.71338379	    -17.33033825	     17.38909891	     17.38909891	      6.92684582	      4.01051069	     -5.09663034	     14.40231744	    -13.25081584	     -6.09844120	     56.98926901	     56.98926901	     13.13272730	    -18.85726116	     10.47004340	     -9.33261095	      9.34951914	      3.16039529	      4.93564015	    -11.64230809	    -11.01613951	     29.41185148	     46.30503011	      0.00000000	      0.00000000	      8.08909010	    -10.20587299	     -1.02888838	     66.75871342	     46.67373605	      0.00000000	      0.00000000
      8.33750000	     -1.76167055	     -6.16052654	      1.72578430	      0.94484723	      0.92951757	      0.48974226	     15.06313876	      3.84057036	    -17.94457330	     16.86274237	     16.86274237	      7.20143066	      4.98331408	     -5.43103914	     16.41257865	    -13.67900525	     -5.70045156	     59.57083396	     59.57083396	     13.83665718	    -18.94286536	     14.64526744	     -9.45940840	      9.47806088	      3.61520439	      6.37168374	    -11.94464486	     -9.85040252	     30.91333260	     46.17063926	      0.00000000	      0.00000000	      8.27491140	     -9.70165195	      0.05723815	     62.77996164	     46.57305770	      0.00000000	      0.00000000
      8.35000000	     -1.68177836	     -6.29760677	      2.00352017	      0.94409516	      0.93025572	      0.49110535	     14.22013738	      4.14874600	    -18.23164180	     16.32571388	     16.32571388	      7.49708124	      5.26376201	     -5.45030851	     18.33749241	    -14.28499215	     -5.49911690	     61.47921198	     61.47921198	     13.53729475	    -19.07755252	     14.99467203	     -9.54278479	      9.61879822	      3.66708663	      8.28534206	    -11.98890943	     -9.64684223	     32.03937271	     46.12505427	      0.00000000	      0.00000000	      7.27744792	     -9.51662907	      0.54638571	     61.34522228	     46.51451237	      0.00000000	      0.00000000
      8.36250000	     -1.56814643	     -6.29693364	      2.24114917	      0.94322107	      0.93115469	      0.49220595	     13.36291672	      4.27697255	    -18.53537055	     15.84060406	     15.84060406	      7.73855170	      5.77306962	     -5.66905805	     20.15312216	    -14.57887569	     -5.22533799	     62.88848654	     62.88848654	     13.99114582	    -19.12356895	     17.00348394	     -9.66123957	      9.65241065	      4.20456379	      9.76832235	    -12.44379751	     -8.34770148	     33.59314744	     45.98892879	      0.00000000	      0.00000000	      7.39646861	     -9.00479663	      1.50867463	     57.40098623	     46.41935214	      0.00000000	      0.00000000
      8.37500000	     -1.49845186	     -6.30321409	      2.49114769	      0.94224789	      0.93192539	      0.49327140	     12.57110915	      4.45020385	    -18.65431290	     15.35202475	     15.35202475	      7.99892315	      5.94560423	     -5.67489691	     21.88974204	    -14.84240701	     -4.97515093	     63.66783252	     63.66783252	     13.94878800	    -19.16753008	     17.14111249	     -9.76725546	      9.63790312	      4.11503617	     11.78210292	    -12.48667346	     -8.06194314	     34.90866642	     45.93306088	      0.00000000	      0.00000000	      6.37148189	     -8.93015693	      1.97185913	     55.67718567	     46.35973006	      0.00000000	      0.00000000
      8.38750000	     -1.44444314	     -6.24644119	      2.71277941	      0.94114028	      0.93264488	      0.49412301	     11.84199751	      4.53624007	    -18.73879611	     14.93101505	     14.93101505	      8.22762478	      6.09381749	     -5.80725641	     23.55397451	    -14.91611368	     -4.69194950	     63.95319765	     63.95319765	     14.14098895	    -19.18022050	     17.68197747	     -9.85891104	      9.60024624	      4.58228970	     13.26935549	    -13.01164311	     -6.80023243	     36.61905124	     45.80301961	      0.00000000	      0.00000000	      6.29045313	     -8.47604868	      2.65363648	     51.97077765	     46.28367294	      0.00000000	      0.00000000
      8.40000000	     -1.40706694	     -6.17121203	      2.95337825	      0.93995418	      0.93330284	      0.49481977	     11.15319782	      4.60158575	    -18.77162440	     14.53575737	     14.53575737	      8.48146495	      6.10380138	     -5.80425985	     25.09556670	    -14.87070603	     -4.36999653	     63.66556756	     63.66556756	     14.17919170	    -19.17882325	     17.63606076	     -9.95799765	      9.51824134	      4.41171365	     15.32893379	    -13.03827886	     -6.62601177	     37.99867124	     45.75366584	      0.00000000	      0.00000000	      5.16820097	     -8.47066058	      2.98640055	     50.37713697	     46.23123829	      0.00000000	      0.00000000
      8.41250000	     -1.37808011	     -6.04615988	      3.19804595	      0.93864826	      0.93389436	      0.49532908	     10.47884567	      4.61533104	    -18.71361037	     14.13590155	     14.13590155	      8.69080033	      5.99912361	     -5.90351652	     26.53633872	    -14.68563144	     -4.04377772	     62.91044576	     62.91044576	     14.18067002	    -19.17167810	     17.62549306	    -10.05662472	      9.38252797	      4.76184730	     16.78517946	    -13.61264629	     -5.46750525	     40.07231115	     45.62415168	      0.00000000	      0.00000000	      5.05046792	     -8.03613219	      3.37932579	     46.57664955	     46.17399612	      0.00000000	      0.00000000
      8.42500000	     -1.37997912	     -5.90073834	      3.43053367	      0.93727775	      0.93435733	      0.49568624	      9.89547183	      4.57576304	    -18.67678311	     13.84280052	     13.84280052	      8.94501644	      5.89839717	     -5.90736930	     27.84893062	    -14.39531886	     -3.71241570	     61.67165125	     61.67165125	     14.17749745	    -19.15255468	     17.61992677	    -10.15068336	      9.20847983	      4.67677873	     18.76699510	    -13.68745396	     -5.43299888	     41.42673492	     45.58418137	      0.00000000	      0.00000000	      3.85234354	     -8.05124121	      3.58943033	     45.32549079	     46.13108417	      0.00000000	      0.00000000
      8.43750000	     -1.38501408	     -5.77791268	      3.69280104	      0.93582909	      0.93472542	      0.49591890	      9.32377867	      4.56224241	    -18.62243355	     13.55543686	     13.55543686	      9.18378085	      5.73599844	     -5.91492325	     29.04395221	    -14.04780952	     -3.32248674	     60.01374417	     60.01374417	     14.14954658	    -19.13008977	     17.65774806	    -10.23153588	      9.01966961	      4.57513336	     20.68283730	    -13.73426493	     -5.33458984	     42.88832555	     45.53643311	      0.00000000	      0.00000000	      2.75494955	     -8.07129245	      3.76851123	     43.82176475	     46.09008425	      0.00000000	      0.00000000
      8.45000000	     -1.41878921	     -5.67434808	      3.96223348	      0.93434371	      0.93501029	      0.49584684	      8.71993992	      4.59461072	    -18.46273408	     13.10177630	     13.10177630	      9.29879363	      5.30243209	     -6.09877725	     30.11710020	    -13.68815671	     -2.99587259	     57.95594189	     57.95594189	     13.85394381	    -19.11427887	     17.46409623	    -10.32249244	      9.01898225	      4.88551718	     21.48696170	    -14.74005664	     -3.76705977	     47.06335120	     45.32310801	      0.00000000	      0.00000000	      3.10652785	     -7.46262957	      3.77069905	     38.70760226	     46.06954817	      0.00000000	      0.00000000
      8.46250000	     -1.46258745	     -5.54712730	      4.22514872	      0.93283415	      0.93514636	      0.49569642	      8.19747168	      4.55223835	    -18.40901119	     12.81594688	     12.81594688	      9.53404012	      5.07346013	     -6.10742490	     31.04883972	    -13.23528286	     -2.64840104	     55.57817032	     55.57817032	     13.70005213	    -19.08503600	     17.63837699	    -10.41465375	      8.88725523	      4.55243598	     23.41075866	    -14.68451196	     -3.79099742	     48.86490615	     45.27256138	      0.00000000	      0.00000000	      1.84768271	     -7.58059956	      3.87087224	     37.41337845	     46.03438453	      0.00000000	      0.00000000
      8.47500000	     -1.53812818	     -5.49514961	      4.50905934	      0.93126384	      0.93512935	      0.49542203	      7.70511600	      4.59624921	    -18.33529232	     12.49863733	     12.49863733	      9.72522903	      4.74895966	     -6.14688901	     31.90774952	    -12.82100952	     -2.28220136	     52.92133655	     52.92133655	     13.42753009	    -19.03147610	     17.72143438	    -10.48432297	      8.87270965	      4.23499981	     25.07161271	    -14.76635567	     -3.59020461	     51.42484443	     45.18574299	      0.00000000	      0.00000000	      0.86109206	     -7.56892282	      3.90743077	     35.48342960	     46.00909938	      0.00000000	      0.00000000
      8.48750000	     -1.65762849	     -5.34474172	      4.75130452	      0.92966942	      0.93505001	      0.49502059	      7.28277237	      4.50665938	    -18.27525607	     12.23684000	     12.23684000	      9.91738920	      4.48494112	     -6.17930779	     32.60549473	    -12.25280757	     -1.97040030	     49.96285866	     49.96285866	     13.13929025	    -18.98047786	     17.89769677	    -10.49874240	      8.68475471	      4.16246451	     26.62792603	    -14.93570306	     -3.52711179	     53.42561456	     45.12323717	      0.00000000	      0.00000000	     -0.12306545	     -7.60525993	      3.92166757	     34.12810721	     45.98922926	      0.00000000	      0.00000000
